<svg aria-hidden="true" style="position: absolute; width: 0; height: 0; overflow: hidden;" version="1.1" xmlns="http://www.w3.org/2000/svg" xmlns:xlink="http://www.w3.org/1999/xlink">
<defs>
<symbol id="icon-star-black" viewBox="0 0 32 32">
<path d="M14.288 1.849c0.457-1.402 2.441-1.402 2.898 0l2.668 8.19c0.204 0.627 0.789 1.052 1.449 1.052h8.626c1.477 0 2.090 1.891 0.894 2.758l-6.971 5.051c-0.535 0.388-0.76 1.077-0.555 1.706l2.664 8.178c0.457 1.403-1.148 2.572-2.343 1.706l-6.987-5.063c-0.534-0.386-1.255-0.386-1.788 0l-6.987 5.063c-1.195 0.866-2.8-0.303-2.343-1.706l2.665-8.178c0.205-0.629-0.019-1.318-0.555-1.706l-6.971-5.051c-1.196-0.867-0.583-2.758 0.894-2.758h8.626c0.66 0 1.244-0.425 1.449-1.052l2.668-8.19z"></path>
</symbol>
<symbol id="icon-telegram" viewBox="0 0 32 32">
<path d="M16 5.333c5.891 0 10.667 4.776 10.667 10.667s-4.776 10.667-10.667 10.667-10.667-4.776-10.667-10.667 4.776-10.667 10.667-10.667zM19.68 20.348c0.196-0.602 1.116-6.601 1.229-7.784 0.034-0.358-0.079-0.596-0.3-0.702-0.268-0.129-0.665-0.064-1.126 0.102-0.632 0.228-8.707 3.656-9.173 3.855-0.442 0.188-0.861 0.393-0.861 0.69 0 0.209 0.124 0.326 0.465 0.448 0.355 0.127 1.25 0.398 1.778 0.544 0.509 0.14 1.088 0.019 1.412-0.183 0.344-0.214 4.316-2.871 4.6-3.104s0.512 0.065 0.279 0.299c-0.233 0.233-2.959 2.879-3.318 3.245-0.436 0.445-0.127 0.906 0.166 1.090 0.334 0.211 2.739 1.824 3.101 2.082s0.729 0.376 1.066 0.376 0.513-0.443 0.681-0.957z"></path>
</symbol>
<symbol id="icon-star" viewBox="0 0 32 32">
<path fill="#e5e5e5" style="fill: var(--color1, #e5e5e5)" d="M14.436 1.849c0.457-1.402 2.441-1.402 2.898 0l2.668 8.19c0.204 0.627 0.789 1.052 1.449 1.052h8.626c1.477 0 2.090 1.891 0.894 2.758l-6.971 5.051c-0.535 0.388-0.76 1.077-0.555 1.706l2.665 8.178c0.457 1.403-1.148 2.572-2.343 1.706l-6.988-5.063c-0.533-0.386-1.255-0.386-1.788 0l-6.988 5.063c-1.195 0.866-2.8-0.303-2.343-1.706l2.665-8.178c0.205-0.629-0.019-1.318-0.555-1.706l-6.971-5.051c-1.196-0.867-0.583-2.758 0.894-2.758h8.626c0.66 0 1.244-0.425 1.449-1.052l2.668-8.19z"></path>
</symbol>
<symbol id="icon-linkedin" viewBox="0 0 32 32">
<path d="M16 3c-7.18 0-13 5.82-13 13s5.82 13 13 13 13-5.82 13-13c0-7.18-5.82-13-13-13zM12.5 22h-2.5v-9h2.5v9zM11.242 12h-0.014c-0.746 0-1.229-0.556-1.229-1.251 0-0.71 0.498-1.249 1.257-1.249 0.761 0 1.229 0.54 1.243 1.249 0 0.694-0.482 1.251-1.258 1.251zM22 22h-2.5v-4.5c0-1.5-0.723-2-1.5-2-0.723 0-1.5 0.5-1.5 2v4.5h-2.5v-9h2.5v1.5c0.172-0.491 0.992-1.5 2.5-1.5 2 0 3 1.5 3 4v5z"></path>
</symbol>
<symbol id="icon-github" viewBox="0 0 32 32">
<path d="M16 3c-7.18 0-13 5.82-13 13 0 6.139 4.256 11.28 9.977 12.643-0.296-0.070-0.589-0.149-0.877-0.239v-2.979c0 0-0.488 0.163-1.137 0.163-1.819 0-2.574-1.622-2.763-2.438-0.114-0.497-0.413-0.967-0.734-1.255-0.383-0.342-0.563-0.343-0.566-0.46-0.005-0.245 0.329-0.235 0.487-0.235 0.813 0 1.428 0.864 1.714 1.311 0.709 1.104 1.469 1.288 1.861 1.288 0.488 0 0.909-0.073 1.198-0.213 0.134-0.944 0.554-1.785 1.239-2.387-3.049-0.61-5.2-2.358-5.2-5.2 0-1.464 0.588-2.809 1.566-3.896-0.1-0.284-0.267-0.857-0.267-1.791 0-0.617 0.043-1.376 0.325-2.113 0 0 1.854 0.013 3.603 1.669 0.807-0.235 1.671-0.369 2.572-0.369s1.766 0.134 2.572 0.369c1.748-1.656 3.602-1.669 3.602-1.669 0.284 0.737 0.325 1.495 0.325 2.113 0 1.008-0.134 1.595-0.216 1.848 0.949 1.076 1.516 2.401 1.516 3.839 0 2.842-2.151 4.59-5.2 5.2 0.814 0.715 1.3 1.756 1.3 2.925v4.279c-0.288 0.090-0.581 0.169-0.878 0.239 5.721-1.363 9.977-6.505 9.977-12.643 0-7.18-5.82-13-13-13zM16.907 28.965c-0.299 0.021-0.602 0.035-0.907 0.035 0.305 0 0.607-0.015 0.907-0.035zM18.893 28.673c-0.582 0.133-1.178 0.226-1.788 0.277 0.609-0.052 1.206-0.145 1.788-0.277zM16 29c-0.305 0-0.607-0.014-0.906-0.035 0.3 0.020 0.601 0.035 0.906 0.035zM14.894 28.95c-0.608-0.052-1.206-0.145-1.787-0.277 0.582 0.132 1.178 0.226 1.787 0.277z"></path>
</symbol>
<symbol id="icon-facebook" viewBox="0 0 32 32">
<path d="M16 3c-7.179 0-13 5.821-13 13 0 6.517 4.801 11.899 11.056 12.84v-9.395h-3.216v-3.417h3.216v-2.274c0-3.764 1.834-5.416 4.963-5.416 1.498 0 2.291 0.111 2.666 0.162v2.982h-2.134c-1.328 0-1.792 1.26-1.792 2.679v1.867h3.893l-0.527 3.417h-3.365v9.422c6.345-0.86 11.241-6.285 11.241-12.867 0-7.179-5.82-13-13-13z"></path>
</symbol>
<symbol id="mobile-close" viewBox="0 0 32 32">
<path d="M23.733 10.304l-1.504-1.504-5.963 5.963-5.963-5.963-1.504 1.504 5.963 5.963-5.963 5.963 1.504 1.504 5.963-5.963 5.963 5.963 1.504-1.504-5.963-5.963 5.963-5.963z"></path>
</symbol>
<symbol id="mobile-open" viewBox="0 0 32 32">
<path d="M6.4 11.733v-2.133h19.2v2.133h-19.2zM6.4 17.067h19.2v-2.133h-19.2v2.133zM6.4 22.4h19.2v-2.133h-19.2v2.133z"></path>
</symbol>
<symbol id="icon-email" viewBox="0 0 32 32">
<path d="M26.667 5.333h-21.333c-1.467 0-2.653 1.2-2.653 2.667l-0.013 16c0 1.467 1.2 2.667 2.667 2.667h21.333c1.467 0 2.667-1.2 2.667-2.667v-16c0-1.467-1.2-2.667-2.667-2.667zM26.133 11l-9.427 5.893c-0.427 0.267-0.987 0.267-1.413 0l-9.427-5.893c-0.333-0.213-0.533-0.573-0.533-0.96 0-0.893 0.973-1.427 1.733-0.96l8.933 5.587 8.933-5.587c0.76-0.467 1.733 0.067 1.733 0.96 0 0.387-0.2 0.747-0.533 0.96z"></path>
</symbol>
<symbol id="icon-phone" viewBox="0 0 32 32">
<path d="M24.881 19.774l-3.268-0.373c-0.785-0.090-1.557 0.18-2.11 0.733l-2.367 2.367c-3.641-1.853-6.626-4.825-8.478-8.478l2.38-2.38c0.553-0.553 0.823-1.325 0.733-2.11l-0.373-3.242c-0.154-1.299-1.248-2.277-2.56-2.277h-2.226c-1.454 0-2.663 1.209-2.573 2.663 0.682 10.987 9.469 19.761 20.443 20.443 1.454 0.090 2.663-1.119 2.663-2.573v-2.226c0.013-1.299-0.965-2.393-2.264-2.547z"></path>
</symbol>
<symbol id="icon-name" viewBox="0 0 32 32">
<path d="M16 16c2.947 0 5.333-2.387 5.333-5.333s-2.387-5.333-5.333-5.333c-2.947 0-5.333 2.387-5.333 5.333s2.387 5.333 5.333 5.333zM16 18.667c-3.56 0-10.667 1.787-10.667 5.333v1.333c0 0.733 0.6 1.333 1.333 1.333h18.667c0.733 0 1.333-0.6 1.333-1.333v-1.333c0-3.547-7.107-5.333-10.667-5.333z"></path>
</symbol>
<symbol id="icon-x" viewBox="0 0 32 32">
<path d="M32 3.223l-3.223-3.223-12.777 12.777-12.777-12.777-3.223 3.223 12.777 12.777-12.777 12.777 3.223 3.223 12.777-12.777 12.777 12.777 3.223-3.223-12.777-12.777 12.777-12.777z"></path>
</symbol>
</defs>
</svg>
